<svg id="svg" fill="#ffffff" stroke="#ffffff" width="200" height="200" version="1.1" viewBox="144 144 512 512" xmlns="http://www.w3.org/2000/svg">
    <g id="IconSvg_bgCarrier" stroke-width="0"></g>
    <g id="IconSvg_tracerCarrier" stroke-linecap="round" stroke-linejoin="round" stroke="#CCCCCC" stroke-width="0">
      <path xmlns="http://www.w3.org/2000/svg" d="m399.88 163.78c-1.5312 0.03125-3.0273 0.54688-4.3516 1.4609l-228.29 157.44c-3.5898 2.4844-4.4727 7.418-1.9688 10.992l19.512 27.875c2.4844 3.5391 7.3594 4.4102 10.918 1.9531l15.391-10.609v62.867c0 10.5 15.742 10.5 15.742 0v-73.738l173.17-119.42 173.18 119.43v246.88l-346.35-0.003906v-102.32c0.050781-4.4414-3.5703-8.0469-8.0117-7.9648-4.3281 0.089844-7.7812 3.6367-7.7344 7.9648v102.32h-15.742c-4.3789-0.015625-7.9297 3.5391-7.9023 7.918v31.426c-0.015625 4.3711 3.5312 7.918 7.9023 7.9023h409.33c4.3711 0.015625 7.918-3.5312 7.9023-7.9023v-31.426c0.023438-4.3789-3.5234-7.9336-7.9023-7.918h-15.742v-236.02l15.375 10.609c3.5586 2.457 8.4297 1.5859 10.918-1.9531l19.512-27.875c2.5078-3.5781 1.625-8.5078-1.9688-10.992l-43.836-30.227v-97.125c0-4.3477-3.5234-7.8711-7.8711-7.8711h-78.719c-4.3477 0-7.8711 3.5234-7.8711 7.8711v31.98l-89.988-62.07c-1.4961-1.0312-3.0664-1.4922-4.5977-1.4609zm0.12109 17.496 217.3 149.86-10.484 14.977-202.34-139.54c-2.6914-1.8594-6.2539-1.8594-8.9492 0l-202.34 139.54-10.484-14.977zm110.21 21.926h62.977v78.398l-62.977-43.434zm-267.62 330.64v31.488c0.015624 4.3242 3.5195 7.8242 7.8398 7.8398h299.16c4.3242-0.015625 7.8242-3.5195 7.8398-7.8398v-31.488c0.023437-4.3008-3.4102-7.7852-7.7734-7.8867l-1.5469-0.015625c0.87109-2.4805 1.4453-5.0977 1.4453-7.8555v-62.992c0-12.945-10.652-23.586-23.602-23.586h-110.23c-12.945 0-23.586 10.645-23.586 23.602v10.578c-4.9219-1.7344-10.207-2.6914-15.715-2.6914h-7.8984v-20.02c9.6406-8.6562 15.742-21.168 15.742-35.102v-7.8711c5.3047-0.019531 7.8711-4.5703 7.8711-7.75v-23.738c0-26.031-21.219-47.246-47.246-47.246h-15.742c-26.031 0-47.246 21.219-47.246 47.246v23.586c0 4.3594 3.543 7.8867 7.9023 7.8867v7.8867c0 13.934 6.1055 26.445 15.742 35.102v20.004h-7.8711c-26.031 0-47.23 21.203-47.23 47.23v15.715c-4.3516 0.015625-7.8672 3.5664-7.8398 7.918zm86.547-196.83h15.742c17.582 0 31.504 13.922 31.504 31.504v12.484l-9.5156-9.5625c-3.9375-3.957-7.6367-3.3867-10.594-1.582-2.8867 1.7617-23.5 14.406-42.883 14.406l-15.738-0.003906v-15.746c0-17.582 13.906-31.504 31.488-31.504zm30.305 49.309 9.0703 9.0703v12.484c0 17.582-13.906 31.488-31.488 31.488s-31.488-13.906-31.488-31.488v-7.8711h7.8555c19.438 0 37.367-8.7148 46.047-13.684zm-140.62 52.906c-4.3477 0.089844-7.8164 3.6758-7.7344 8.0273v7.8398c0 10.5 15.742 10.5 15.742 0v-7.8398c0.082031-4.4648-3.5469-8.1094-8.0117-8.0273zm196.89 86.699c-4.4961 0-7.8398-3.3438-7.8398-7.8398v-62.992c0-4.4961 3.3438-7.8398 7.8398-7.8398h110.24c4.4961 0 7.8398 3.3438 7.8398 7.8398v62.992c0 4.4961-3.3438 7.8398-7.8398 7.8398zm-94.434-73.57c4.9336 1.7539 10.219 2.7539 15.742 2.7539 5.5273 0 10.809-0.99609 15.742-2.7539v17.066s-2.7812 9.3008-15.742 9.3008c-12.965 0-15.742-9.3008-15.742-9.3008zm-23.617 26.367h10.578s6.9062 15.746 28.781 15.746c21.812 0 28.754-15.621 28.797-15.715h10.594c5.8047 0 11.102 1.5352 15.715 4.1992v35.133c0 2.7578 0.55859 5.375 1.4453 7.8398h-127.39v-15.715c0-17.582 13.906-31.488 31.488-31.488zm173.18 0c-4.3477 0-7.8711 3.5234-7.8711 7.8711s3.5234 7.8711 7.8711 7.8711 7.8711-3.5234 7.8711-7.8711-3.5234-7.8711-7.8711-7.8711zm-212.52 62.961h283.35v15.746h-283.34zm-55.148 62.992h393.65v15.746l-393.64-0.003907z"></path>

      </g>
     <g id="IconSvg_iconCarrier">
      <path xmlns="http://www.w3.org/2000/svg" d="m399.88 163.78c-1.5312 0.03125-3.0273 0.54688-4.3516 1.4609l-228.29 157.44c-3.5898 2.4844-4.4727 7.418-1.9688 10.992l19.512 27.875c2.4844 3.5391 7.3594 4.4102 10.918 1.9531l15.391-10.609v62.867c0 10.5 15.742 10.5 15.742 0v-73.738l173.17-119.42 173.18 119.43v246.88l-346.35-0.003906v-102.32c0.050781-4.4414-3.5703-8.0469-8.0117-7.9648-4.3281 0.089844-7.7812 3.6367-7.7344 7.9648v102.32h-15.742c-4.3789-0.015625-7.9297 3.5391-7.9023 7.918v31.426c-0.015625 4.3711 3.5312 7.918 7.9023 7.9023h409.33c4.3711 0.015625 7.918-3.5312 7.9023-7.9023v-31.426c0.023438-4.3789-3.5234-7.9336-7.9023-7.918h-15.742v-236.02l15.375 10.609c3.5586 2.457 8.4297 1.5859 10.918-1.9531l19.512-27.875c2.5078-3.5781 1.625-8.5078-1.9688-10.992l-43.836-30.227v-97.125c0-4.3477-3.5234-7.8711-7.8711-7.8711h-78.719c-4.3477 0-7.8711 3.5234-7.8711 7.8711v31.98l-89.988-62.07c-1.4961-1.0312-3.0664-1.4922-4.5977-1.4609zm0.12109 17.496 217.3 149.86-10.484 14.977-202.34-139.54c-2.6914-1.8594-6.2539-1.8594-8.9492 0l-202.34 139.54-10.484-14.977zm110.21 21.926h62.977v78.398l-62.977-43.434zm-267.62 330.64v31.488c0.015624 4.3242 3.5195 7.8242 7.8398 7.8398h299.16c4.3242-0.015625 7.8242-3.5195 7.8398-7.8398v-31.488c0.023437-4.3008-3.4102-7.7852-7.7734-7.8867l-1.5469-0.015625c0.87109-2.4805 1.4453-5.0977 1.4453-7.8555v-62.992c0-12.945-10.652-23.586-23.602-23.586h-110.23c-12.945 0-23.586 10.645-23.586 23.602v10.578c-4.9219-1.7344-10.207-2.6914-15.715-2.6914h-7.8984v-20.02c9.6406-8.6562 15.742-21.168 15.742-35.102v-7.8711c5.3047-0.019531 7.8711-4.5703 7.8711-7.75v-23.738c0-26.031-21.219-47.246-47.246-47.246h-15.742c-26.031 0-47.246 21.219-47.246 47.246v23.586c0 4.3594 3.543 7.8867 7.9023 7.8867v7.8867c0 13.934 6.1055 26.445 15.742 35.102v20.004h-7.8711c-26.031 0-47.23 21.203-47.23 47.23v15.715c-4.3516 0.015625-7.8672 3.5664-7.8398 7.918zm86.547-196.83h15.742c17.582 0 31.504 13.922 31.504 31.504v12.484l-9.5156-9.5625c-3.9375-3.957-7.6367-3.3867-10.594-1.582-2.8867 1.7617-23.5 14.406-42.883 14.406l-15.738-0.003906v-15.746c0-17.582 13.906-31.504 31.488-31.504zm30.305 49.309 9.0703 9.0703v12.484c0 17.582-13.906 31.488-31.488 31.488s-31.488-13.906-31.488-31.488v-7.8711h7.8555c19.438 0 37.367-8.7148 46.047-13.684zm-140.62 52.906c-4.3477 0.089844-7.8164 3.6758-7.7344 8.0273v7.8398c0 10.5 15.742 10.5 15.742 0v-7.8398c0.082031-4.4648-3.5469-8.1094-8.0117-8.0273zm196.89 86.699c-4.4961 0-7.8398-3.3438-7.8398-7.8398v-62.992c0-4.4961 3.3438-7.8398 7.8398-7.8398h110.24c4.4961 0 7.8398 3.3438 7.8398 7.8398v62.992c0 4.4961-3.3438 7.8398-7.8398 7.8398zm-94.434-73.57c4.9336 1.7539 10.219 2.7539 15.742 2.7539 5.5273 0 10.809-0.99609 15.742-2.7539v17.066s-2.7812 9.3008-15.742 9.3008c-12.965 0-15.742-9.3008-15.742-9.3008zm-23.617 26.367h10.578s6.9062 15.746 28.781 15.746c21.812 0 28.754-15.621 28.797-15.715h10.594c5.8047 0 11.102 1.5352 15.715 4.1992v35.133c0 2.7578 0.55859 5.375 1.4453 7.8398h-127.39v-15.715c0-17.582 13.906-31.488 31.488-31.488zm173.18 0c-4.3477 0-7.8711 3.5234-7.8711 7.8711s3.5234 7.8711 7.8711 7.8711 7.8711-3.5234 7.8711-7.8711-3.5234-7.8711-7.8711-7.8711zm-212.52 62.961h283.35v15.746h-283.34zm-55.148 62.992h393.65v15.746l-393.64-0.003907z"></path>

      </g>
      </svg>